<svg width="264" height="279" viewBox="0 0 264 279" fill="none" xmlns="http://www.w3.org/2000/svg">
<path d="M264 66.5105C264 92.3598 246.602 114.003 222.158 119.324C208.175 122.38 195.019 120.151 182.725 112.744C182.366 112.529 182.078 112.241 181.719 112.816C176.866 120.043 172.481 127.521 169.461 135.718C168.311 138.845 167.412 142.045 167.16 145.389C166.909 148.588 167.664 151.644 168.598 154.664C171.007 162.466 174.925 169.548 179.238 176.379C179.993 177.601 180.82 178.788 181.575 179.974C181.863 180.478 182.114 180.55 182.653 180.226C188.692 176.487 195.271 174.042 202.28 173C216.874 170.878 230.282 174.006 242.181 182.707C254.007 191.371 261.088 203.127 263.353 217.616C267.523 244.436 250.664 271.004 223.057 277.476C194.3 284.234 166.118 267.121 158.857 238.504C155.154 223.871 157.599 210.066 165.471 197.231C165.902 196.548 165.866 196.225 165.183 195.793C158.246 191.227 151.092 187.021 143.256 184.073C139.913 182.814 136.462 181.772 132.868 181.592C129.309 181.376 125.966 182.311 122.623 183.426C113.888 186.338 106.016 190.976 98.395 196.045C97.8558 196.404 98.1074 196.62 98.3231 196.98C102.277 203.199 104.865 209.922 105.98 217.22C108.101 230.882 105.44 243.609 97.748 255.114C89.013 268.128 76.7912 276.037 61.2983 278.374C33.1883 282.653 7.59444 264.533 1.41166 238C-5.27437 209.167 12.4113 180.55 41.3121 173.827C55.3672 170.555 68.7033 172.748 81.1407 180.154C81.8237 180.585 82.1472 180.55 82.6145 179.83C87.2876 172.748 91.6011 165.486 94.5487 157.504C95.735 154.305 96.6696 151.069 96.9212 147.654C97.1728 144.454 96.418 141.398 95.4834 138.378C93.0749 130.577 89.1568 123.494 84.8432 116.663C84.1243 115.513 83.3335 114.434 82.6505 113.284C82.327 112.78 82.1113 112.637 81.5361 112.996C75.2096 116.951 68.3079 119.467 60.9029 120.402C45.6976 122.308 31.8942 118.677 19.924 109.077C9.24797 100.485 2.74167 89.2679 0.69273 75.7141C-3.62084 47.5639 14.7118 20.8517 42.9657 15.3151C71.0758 9.81449 98.4309 27.1433 105.225 54.9699C108.784 69.4945 106.375 83.1921 98.6107 95.919C98.1793 96.6021 98.2872 96.8538 98.9342 97.2852C105.872 101.851 112.989 106.021 120.79 108.934C124.133 110.192 127.512 111.199 131.07 111.414C134.773 111.63 138.295 110.659 141.746 109.473C149.655 106.776 156.88 102.642 163.853 98.1121C164.572 97.6447 165.651 97.2492 165.866 96.6021C166.082 95.955 165.147 95.164 164.716 94.445C158.893 84.4144 156.448 73.593 157.563 62.0524C159.72 40.1937 175.069 22.0021 196.169 16.0341C225.681 7.72929 255.84 25.6333 262.742 55.5452C263.569 59.4999 264 63.4546 264 66.5105ZM233.446 249.038C233.41 249.002 233.374 248.93 233.338 248.894C233.446 248.75 233.553 248.606 233.661 248.462C238.802 242.926 241.677 236.383 242.288 228.869C242.792 222.685 241.462 216.825 238.442 211.396C235.351 205.824 230.929 201.545 225.25 198.669C224.747 198.418 224.495 198.418 224.351 199.065C223.165 204.242 221.475 209.203 219.426 214.093C218.887 215.387 218.887 215.387 220.002 216.214C224.207 219.342 225.897 223.476 224.711 228.617C223.884 232.212 221.475 234.801 218.636 236.994C215.904 239.115 212.776 239.798 209.397 239.331C208.643 239.223 208.607 239.475 208.571 240.05C208.319 243.142 208.175 246.305 207.564 249.361C206.342 255.257 203.97 260.758 201.561 266.223C201.274 266.906 200.842 267.553 200.267 268.092C199.872 268.452 199.368 268.631 198.937 268.344C197.715 267.589 196.457 266.87 195.882 265.432C195.738 265.072 195.522 264.856 195.163 264.713C190.31 262.663 185.996 259.859 182.222 256.192C174.709 248.822 170.503 239.834 169.749 229.372C169.102 220.492 171.258 212.223 176.039 204.673C176.327 204.206 176.291 203.954 175.859 203.631C174.134 202.372 172.445 201.078 170.755 199.748C170.252 199.352 170.072 199.46 169.749 199.963C162.667 211.612 160.403 224.087 163.71 237.317C170.288 263.706 196.457 279.273 222.841 272.694C248.615 266.259 264.539 239.151 257.566 213.517C252.138 193.564 235.71 179.687 214.969 177.673C204.473 176.667 194.695 179.004 185.601 184.36C185.026 184.72 185.026 184.936 185.385 185.439C189.447 190.904 193.869 196.081 198.47 201.114C202.46 205.464 207.205 208.736 212.345 211.54C212.489 211.612 212.597 211.72 212.776 211.612C213.028 208.844 213.172 206.075 213.639 203.307C214.718 196.979 217.306 191.191 219.858 185.367C220.145 184.684 220.541 184.073 221.08 183.569C221.475 183.21 221.943 182.958 222.41 183.246C224.028 184.145 225.501 185.223 225.897 187.237C226.328 189.609 225.789 191.91 225.394 194.247C225.322 194.786 225.394 195.002 225.861 195.218C227.91 196.26 229.815 197.555 231.612 198.993C241.893 207.262 246.35 221.211 242.756 233.902C241.03 239.762 237.975 244.831 233.446 249.038ZM239.736 53.0645C239.449 52.5971 239.161 52.1297 238.873 51.6624C235.243 45.6225 230.21 41.2004 223.704 38.4681C217.342 35.7717 210.763 35.2684 204.041 36.8862C198.578 38.2164 193.833 40.8409 189.771 44.7596C189.447 45.0832 189.16 45.2989 189.771 45.6584C194.623 48.6784 199.081 52.1657 203.287 56.0485C203.646 56.3721 203.862 56.408 204.257 56.0844C207.313 53.6038 210.835 53.0645 214.466 54.143C219.391 55.653 222.734 59.0684 224.459 63.886C225.537 66.9419 225.286 70.0697 223.596 72.9099C223.057 73.8446 223.345 74.0603 224.135 74.312C232.403 77.26 238.981 82.7247 245.272 88.5489C245.991 89.196 246.674 89.9151 247.141 90.8139C247.429 91.3531 247.608 91.9643 247.069 92.3957C245.955 93.3664 244.805 94.3012 243.223 94.3371C242.899 94.3371 242.648 94.445 242.432 94.6967C240.599 96.7819 238.55 98.6873 236.285 100.341C229.024 105.734 220.864 108.466 211.878 108.61C204.041 108.718 196.78 106.705 190.058 102.678C189.555 102.39 189.339 102.462 189.052 102.894C187.866 104.476 186.679 106.093 185.421 107.639C184.954 108.215 185.026 108.466 185.673 108.826C196.565 115.225 208.211 117.274 220.541 114.686C247.644 108.97 264.288 82.3293 257.566 55.5092C251.203 30.0554 225.358 13.913 199.153 20.4203C172.948 26.9275 157.491 52.4174 163.53 78.6622C164.716 83.8752 166.837 88.7646 169.677 93.2586C169.856 93.5462 169.928 93.9776 170.467 93.5462C172.265 92.1441 174.098 90.742 175.931 89.3758C176.327 89.0882 176.255 88.8365 176.039 88.477C174.386 85.7806 173.163 82.8685 172.229 79.8845C171.69 78.1948 171.294 76.4332 171.079 74.6715C171.115 75.1029 171.294 75.4625 171.402 75.8939C172.516 80.1362 174.098 84.1987 176.471 87.9018C176.83 88.441 177.01 88.5489 177.549 88.0815C179.957 86.0682 182.33 84.0549 184.63 81.9338C187.902 78.9138 191.137 75.822 193.581 72.0111C195.666 68.7754 197.463 65.36 199.476 62.0884C199.8 61.5851 199.512 61.4772 199.153 61.2974C196.744 60.2189 194.3 59.1403 191.892 57.9899C185.349 54.8621 180.173 49.9367 174.961 45.0832C174.529 44.6518 174.17 44.1484 173.954 43.5732C173.775 43.1418 173.739 42.7104 174.098 42.3868C175.608 41.0566 177.189 39.978 179.382 40.4454C181.611 40.9128 183.516 42.0632 185.493 43.1058C185.96 43.3575 186.248 43.4294 186.643 42.998C188.297 41.3083 190.202 39.9061 192.251 38.7197C200.77 33.7224 209.865 32.3922 219.355 35.2324C228.773 38.0366 235.638 44.0046 239.88 52.9207C239.844 52.9566 239.772 52.9926 239.736 53.0645ZM86.4608 248.283C92.1044 239.51 94.1533 229.947 92.4279 219.629C91.6011 214.632 89.7679 209.994 87.1438 205.68C86.7484 205.069 86.5327 204.853 85.8857 205.464C85.0229 206.291 84.0883 207.01 83.1537 207.765C76.0364 213.553 70.0333 220.312 65.9354 228.617C64.9649 230.594 63.7786 232.464 62.4486 234.226C61.1905 235.879 59.7886 237.389 57.8834 238.252C57.0567 238.612 56.9129 238.971 57.2723 239.798C60.6872 247.779 61.3343 256.228 61.3702 264.785C61.3702 265.935 61.3343 267.121 61.0108 268.236C60.831 268.883 60.5435 269.494 59.7167 269.422C57.4521 269.243 55.475 268.488 54.4326 266.223C53.8574 265 53.462 263.742 53.1026 262.412C52.8869 261.621 52.8869 260.614 52.4196 260.075C51.8804 259.464 50.802 259.787 49.9752 259.679C42.75 258.673 36.2797 255.904 31.0674 250.763C21.1103 241.02 18.1986 229.336 22.1527 215.998C22.5841 214.56 23.1592 213.122 23.986 211.756C24.0219 211.899 24.0579 211.935 24.0219 211.935C23.8781 212.259 23.7344 212.619 23.5906 212.942C20.643 220.42 20.4273 228.006 23.1592 235.52C26.3225 244.256 32.2537 250.44 40.8448 254.071C44.08 255.437 47.4949 256.156 50.9817 256.372C51.3771 256.408 51.7007 256.408 51.5569 255.833C50.5144 250.512 50.0831 245.119 50.0112 239.69C50.0112 239.295 49.9033 239.079 49.5079 238.971C45.6257 237.821 42.8578 235.232 40.7729 231.925C37.6097 226.963 38.5802 220.851 43.0016 216.969C44.8349 215.351 46.9557 214.093 49.1125 212.906C49.7236 212.583 49.7595 212.295 49.5439 211.684C48.5733 208.88 47.4949 206.075 46.8119 203.127C45.4819 197.195 45.4819 191.155 45.4819 185.151C45.4819 184.36 45.5538 183.569 45.8773 182.814C46.093 182.311 46.4165 181.88 47.0276 181.952C48.4295 182.131 49.8314 182.311 50.9458 183.318C51.3412 183.677 51.7366 183.785 52.2398 183.785C55.2953 183.713 58.2788 184.037 61.2624 184.648C65.8995 185.619 70.249 187.344 74.275 189.861C74.7423 190.149 74.958 190.149 75.2815 189.681C76.3239 188.243 77.4023 186.805 78.5167 185.439C79.0558 184.792 78.948 184.54 78.2291 184.109C66.6184 177.35 54.2888 175.588 41.2762 178.824C16.0418 185.044 0.081644 211.252 6.12064 236.526C12.1237 261.441 35.3091 277.26 60.5794 273.521C72.8012 271.723 82.9021 265.971 90.7384 256.408C99.4734 245.766 103.032 233.471 101.45 219.773C100.624 212.547 98.1793 205.896 94.3331 199.748C94.0455 199.28 93.8658 199.244 93.4704 199.568C91.8887 200.826 90.2711 202.049 88.6535 203.235C88.2222 203.559 88.2941 203.774 88.5097 204.206C93.5782 212.942 95.2317 222.29 93.5063 232.212C92.5357 237.857 90.379 243.034 87.1078 247.743C86.9281 247.959 86.9281 248.427 86.4608 248.283ZM85.1308 43.1777C83.0099 40.5533 80.6375 38.1804 77.9056 36.1671C68.7752 29.5161 58.6024 26.8556 47.4949 28.8689C34.051 31.3137 24.3455 38.9354 18.4862 51.3388C17.947 52.4893 17.5875 53.7116 17.1202 54.898C18.63 55.0059 20.0319 55.1137 21.4338 55.2576C28.0839 55.9766 34.5542 57.4866 40.8808 59.6437C41.4919 59.8594 41.8154 59.6796 42.1749 59.2482C43.397 57.7742 44.7989 56.4799 46.4165 55.4733C50.9458 52.6331 56.6613 53.1004 60.4356 56.5878C61.6937 57.7382 62.6643 59.1044 63.5989 60.5065C65.1446 62.8793 66.4746 65.396 67.8765 67.8766C68.2 68.4519 68.5595 68.6676 69.2425 68.6676C72.6215 68.7035 76.0004 68.6316 79.3075 69.3147C84.304 70.3214 89.1568 71.8673 93.9736 73.593C94.7644 73.8806 95.5552 74.2401 96.2382 74.7794C96.7055 75.1748 97.065 75.6422 96.7774 76.2893C95.735 78.6262 94.1174 80.1362 91.4214 80.2081C89.6241 80.28 87.8268 80.1362 86.0294 79.9564C85.5262 79.9205 85.2746 80.0283 85.0948 80.5317C84.5916 81.8619 83.9086 83.0842 83.1897 84.2706C82.8662 84.8099 82.974 85.0616 83.4054 85.4571C86.6046 88.1534 89.9117 90.742 93.2547 93.2945C93.9736 93.8338 94.2612 93.8338 94.7285 93.0429C101.163 82.2214 103.356 70.6809 100.983 58.3135C95.8788 32.0327 70.1052 14.8837 43.8284 20.1686C18.4502 25.2378 1.62733 49.2896 5.50954 74.8513C7.34281 86.967 13.0583 97.0335 22.4762 104.799C32.9366 113.463 45.0865 116.987 58.6024 115.693C65.7916 115.009 72.4777 112.673 78.6604 108.934C79.0918 108.682 79.2715 108.502 78.8761 107.999C76.1801 104.368 73.3404 100.808 70.3928 97.393C70.0333 96.9616 69.7817 96.9257 69.2784 97.1773C62.5924 100.521 55.5469 101.563 48.1779 100.233C42.2468 99.1547 36.9986 96.6021 32.4334 92.6474C32.1818 92.4317 31.7864 92.2519 31.6785 91.6048C33.368 93.0069 34.9856 94.1574 36.711 95.1281C43.2532 98.7952 50.2628 100.053 57.6678 98.903C61.1905 98.3637 64.5335 97.1773 67.6608 95.4516C67.9484 95.2719 68.4876 95.2 67.9484 94.6607C65.5041 92.1081 63.1675 89.4117 60.3637 87.1827C56.6613 84.3066 52.5274 82.1135 48.4655 79.7767C46.5603 78.6981 44.6911 77.5117 43.0016 76.0736C40.3416 73.7727 38.9037 70.9325 38.9756 67.4093C38.9756 66.6543 38.76 66.5105 38.077 66.5105C35.0934 66.4386 32.0739 66.5464 29.0904 66.115C23.4468 65.2881 18.0908 63.4186 12.6988 61.5851C11.908 61.2975 11.1172 60.9379 10.4701 60.3627C10.0747 60.0032 9.71527 59.5718 9.9669 58.9965C10.6139 57.6663 11.2969 56.3361 12.6988 55.653C13.0583 55.4733 13.238 55.2216 13.3818 54.8621C16.1856 46.5932 21.0743 39.7983 28.1198 34.6931C36.9986 28.2218 46.9917 25.5973 57.9194 26.9994C66.9419 28.1499 74.7423 31.9967 81.2486 38.3602C82.7224 39.7983 84.1962 41.3083 85.2746 43.1058C85.2386 43.1058 85.1667 43.1418 85.1308 43.1777ZM177.01 204.565C174.278 209.239 172.516 214.164 171.726 219.449C170.863 225.381 171.294 231.206 173.163 236.85C176.866 247.887 184.019 255.869 194.695 260.65C195.235 260.902 195.414 260.866 195.486 260.219C195.918 256.624 196.672 253.1 197.607 249.613C198.865 245.011 200.447 240.517 202.352 236.167C202.496 235.843 202.747 235.592 202.388 235.196C200.267 232.752 198.649 229.947 197.212 227.107C192.575 217.76 185.026 211.037 177.01 204.565ZM131.969 173.827C147.318 173.755 158.713 161.603 159.324 147.761C160.007 132.266 147.677 119.252 132.077 119.252C116.764 119.252 105.369 131.403 104.722 145.209C104.003 160.776 116.368 173.755 131.969 173.827ZM238.945 93.3305C238.873 93.2586 238.873 93.2226 238.838 93.2226C231.253 89.4118 224.387 84.5583 218.168 78.806C217.809 78.4824 217.557 78.5543 217.234 78.77C215.796 79.6329 214.322 80.4598 212.884 81.2866C209.361 83.2999 205.767 85.2773 202.711 87.9737C198.326 91.8565 194.516 96.3145 190.777 100.808C190.274 101.42 190.885 101.456 191.173 101.599C199.584 106.093 208.463 107.46 217.809 105.554C226.113 103.828 233.158 99.7299 238.945 93.3305ZM56.6253 208.484C58.171 207.549 59.537 206.615 60.831 205.536C65.3243 201.689 69.0987 197.195 72.909 192.737C73.3044 192.27 72.8731 192.198 72.6214 192.054C69.4222 190.292 66.0433 189.034 62.4846 188.243C59.4651 187.56 56.4096 187.273 53.2463 187.344C55.2593 194.247 56.3018 201.222 56.6253 208.484ZM198.614 220.78C198.685 220.025 198.218 219.521 197.931 218.982C193.833 211.684 188.225 205.68 181.97 200.251C180.82 199.28 180.82 199.316 179.85 200.503C179.418 201.042 179.418 201.294 179.993 201.761C186.859 207.37 193.258 213.517 198.614 220.78ZM206.162 80.1721C206.126 80.1002 206.09 80.0283 206.054 79.9564C205.515 80.244 204.94 80.5317 204.401 80.8193C197.319 84.8459 191.424 90.2746 186.104 96.3504C185.098 97.5009 185.134 97.5009 186.32 98.4716C186.823 98.903 187.075 98.9749 187.578 98.3997C191.604 93.4743 195.953 88.8365 200.734 84.6302C202.46 83.0483 204.293 81.6102 206.162 80.1721ZM57.7396 212.978C58.0991 213.158 58.3507 212.942 58.6024 212.798C59.6089 212.223 60.6513 211.684 61.6219 211.073C67.6968 207.262 72.8731 202.48 77.618 197.123C78.7323 195.865 78.9121 196.26 77.3664 195.038C76.8631 194.643 76.6115 194.643 76.1442 195.182C70.6444 201.761 64.6773 207.873 57.7396 212.978ZM91.7449 97.2492C91.5292 97.0695 91.3495 96.9257 91.1338 96.7819C87.8268 94.3371 84.5197 91.8565 81.3924 89.1241C80.3859 88.2253 80.4218 88.2972 79.5231 89.196C78.8761 89.8432 79.0918 90.1667 79.631 90.6701C82.7224 93.5103 85.9935 96.0988 89.4444 98.5075C89.696 98.6873 89.9835 99.2266 90.343 98.8671C90.8822 98.3997 91.2776 97.8245 91.7449 97.2492ZM177.01 108.79C174.529 111.81 167.736 125.939 167.124 129.498C167.412 129.031 167.592 128.779 167.736 128.527C170.863 122.847 174.134 117.274 177.657 111.846C178.807 110.048 178.807 110.048 177.01 108.79ZM96.7774 163.796C96.7055 163.904 96.6336 163.94 96.6336 163.976C93.1109 170.267 89.5522 176.523 85.5262 182.527C85.3105 182.85 85.3824 182.994 85.634 183.174C85.8857 183.354 86.1732 183.498 86.353 183.749C86.8922 184.36 87.2157 184.181 87.6111 183.534C91.2417 177.494 94.369 171.238 96.7055 164.587C96.7774 164.371 96.9212 164.156 96.7774 163.796ZM149.187 181.7C149.367 181.808 149.511 181.916 149.655 181.988C155.586 185.223 161.409 188.639 167.053 192.306C168.311 193.133 168.275 193.133 169.245 192.018C169.677 191.515 169.713 191.335 169.102 190.976C162.991 187.273 156.628 184.145 149.906 181.772C149.69 181.664 149.475 181.556 149.187 181.7ZM94.4768 101.779C98.6826 104.763 112.558 111.342 114.787 111.306C114.104 110.911 113.564 110.587 113.025 110.3C107.741 107.424 102.601 104.332 97.5323 101.096C95.735 99.9456 95.735 99.9456 94.5128 101.671C94.4768 101.743 94.4768 101.779 94.4768 101.779ZM67.3014 76.1096C67.4811 76.4332 67.5889 76.577 67.6608 76.7208C70.1052 80.4957 72.9809 83.9471 76.0723 87.2187C76.6834 87.8658 76.935 87.7939 77.4742 87.1468C78.0494 86.4278 78.0494 86.0682 77.3304 85.4211C74.4188 82.8326 71.7228 79.9564 69.1706 77.0084C68.7033 76.4332 68.1641 76.2174 67.3014 76.1096ZM174.062 194.175C173.811 194.139 173.739 194.319 173.631 194.463C173.343 194.786 173.092 195.146 172.804 195.434C172.445 195.829 172.48 196.045 172.912 196.332C174.386 197.411 175.859 198.489 177.297 199.604C178.735 200.718 178.735 200.718 179.885 199.316C180.209 198.921 180.137 198.777 179.778 198.489C178.052 197.051 176.183 195.757 174.386 194.427C174.314 194.355 174.17 194.247 174.062 194.175ZM186.14 100.018C185.673 99.6221 185.206 99.2625 184.81 98.8311C184.451 98.4716 184.199 98.4716 183.875 98.903C182.797 100.341 181.683 101.779 180.64 103.217C179.634 104.583 179.634 104.583 181 105.626C181.431 105.95 181.647 105.986 182.006 105.518C183.228 103.828 184.523 102.139 185.781 100.485C185.889 100.341 185.996 100.197 186.14 100.018ZM78.265 192.557C78.6604 192.881 79.1277 193.169 79.4872 193.528C80.0264 194.139 80.3499 193.888 80.7094 193.384C81.5721 192.198 82.4708 191.047 83.3335 189.861C84.4838 188.315 84.4478 188.351 82.9021 187.237C82.5067 186.985 82.3629 187.057 82.1113 187.38C80.8532 189.142 79.5591 190.868 78.265 192.557ZM81.7518 79.4891C79.7748 79.1295 77.7977 78.7341 75.8207 78.3745C77.0788 79.7767 78.4088 81.035 79.7388 82.2933C79.8826 82.4371 80.0623 82.545 80.2421 82.7247C80.8532 81.6462 81.3924 80.6395 81.7518 79.4891Z" fill="#E5E5E5" fill-opacity="0.1"/>
<path d="M85.1364 29C85.4091 29.2875 85.6818 29.6229 85.9545 29.9104H86C85.2273 30.2937 85.3636 29.3354 85 29.1437C85 29.0958 85.0909 29.0479 85.1364 29Z" fill="#E5E5E5" fill-opacity="0.1"/>
<path d="M86 30.1844C86.0359 30.0046 86.1438 29.9327 86.2876 30.0765C86.3235 30.1125 86.3595 30.2203 86.3235 30.2203C86.2157 30.4001 86.1438 30.0765 86 30.1844Z" fill="#E5E5E5" fill-opacity="0.1"/>
<path d="M86.0881 31C86.196 30.7143 85.7646 30.2143 86.196 30C86.196 30 86.16 30 86.196 30C86.1241 30.3571 86.4835 30.8571 86.0881 31C86.0881 31 86.0522 31 86.0881 31Z" fill="#E5E5E5" fill-opacity="0.1"/>
<path d="M31.1078 77C31.1797 77.0719 31.3235 77.1438 31.2157 77.2517C31.0719 77.3955 31.0359 77.2157 31 77.1079C31.0359 77.1079 31.0719 77.0719 31.1078 77Z" fill="#E5E5E5" fill-opacity="0.1"/>
<path d="M31.1078 77C31.1797 77.0719 31.2157 77.1079 31.2876 77.1798C31.2516 77.2157 31.2157 77.2517 31.1797 77.3236C31.0719 77.3236 31 77.2517 31 77.1438C31.0359 77.0719 31.0719 77.036 31.1078 77Z" fill="#E5E5E5" fill-opacity="0.1"/>
<path d="M31 77.0775C31.1438 76.8977 31.2157 77.0775 31.2876 77.1493C31.2516 77.1853 31.2157 77.2213 31.1797 77.2572C31.0719 77.2572 31.0359 77.1853 31 77.0775C31 77.0775 31.0359 77.0415 31 77.0775Z" fill="#E5E5E5" fill-opacity="0.1"/>
<path d="M31.2157 77.1923C31.0719 77.1923 31.0359 77.1563 31.0359 77.0125H31C31.1797 76.9766 31.2516 77.0125 31.2157 77.1923Z" fill="#E5E5E5" fill-opacity="0.1"/>
<path d="M31 77.016C31.0719 77.016 31.1438 77.0519 31.2157 77.0519C31.1797 77.0879 31.1797 77.1598 31.1438 77.1957H31.1797C31.0719 77.1957 31 77.1238 31 77.016C31 77.016 31.0359 76.98 31 77.016Z" fill="#E5E5E5" fill-opacity="0.1"/>
<path d="M31.1438 77.1797C31.1078 77.1438 31.0719 77.0719 31 77.036C31.0359 77.036 31.0719 77 31.0719 77C31.2157 77.0719 31.2157 77.1438 31.1438 77.1797C31.1438 77.1797 31.1438 77.2157 31.1438 77.1797Z" fill="#E5E5E5" fill-opacity="0.1"/>
<path d="M30.016 76L30.0519 76.036C30.016 76.036 30.016 76 30.016 76C30.016 76 29.98 76 30.016 76Z" fill="#E5E5E5" fill-opacity="0.1"/>
<path d="M30 76.0163C30.0366 75.9797 30.0366 76.0163 30 76.0163C30 76.0163 30.0366 76.0163 30 76.0163Z" fill="#E5E5E5" fill-opacity="0.1"/>
<path d="M86.1174 234C86.369 234.072 86.1893 234.216 86.1533 234.324C86.1533 234.359 86.0096 234.359 86.0096 234.359C85.9736 234.216 86.0455 234.108 86.1174 234C86.1174 234 86.1533 234.036 86.1174 234Z" fill="#E5E5E5" fill-opacity="0.1"/>
<path d="M240.148 40C240.444 40.6545 240.704 41.3455 241 42C240.556 41.4182 240.222 40.8 240 40.1091C240.037 40.0727 240.111 40.0364 240.148 40Z" fill="#E5E5E5" fill-opacity="0.1"/>
<path d="M240.144 39C240.216 39.2857 240.252 39.5 240.323 39.7857C240.288 39.8572 240.216 39.9286 240.18 40C240.036 39.8571 240 39.5714 240 39.2857C240.036 39.1429 240.108 39.0714 240.144 39Z" fill="#E5E5E5" fill-opacity="0.1"/>
<path d="M241.036 42C241.036 42.036 241.072 42.1079 241.072 42.1438C241.072 42.1798 241.036 42.1798 241.036 42.2157C241.036 42.1798 241 42.1078 241 42.0719C241 42.0359 241.036 42 241.036 42Z" fill="#E5E5E5" fill-opacity="0.1"/>
<path d="M240.18 39C240.216 39.2143 240.288 39.4286 240.324 39.7143C240.288 39.7857 240.216 39.9286 240.18 40C240.036 39.8571 240 39.5714 240 39.2857C240.036 39.1429 240.108 39.0714 240.18 39Z" fill="#E5E5E5" fill-opacity="0.1"/>
<path d="M233 235.2C232.722 235.533 232.5 236 232 236C232.167 235.467 232.444 235.2 232.833 235C232.833 235.067 232.944 235.133 233 235.2Z" fill="#E5E5E5" fill-opacity="0.1"/>
<path d="M233.288 235.144C233.216 235.216 233.18 235.252 233.108 235.324C233.072 235.288 233.036 235.216 233 235.18C233.072 235.108 233.108 235.072 233.18 235C233.18 235.036 233.216 235.072 233.288 235.144Z" fill="#E5E5E5" fill-opacity="0.1"/>
<path d="M233.288 235.144C233.216 235.18 233.18 235.252 233.108 235.288C233.072 235.252 233.036 235.216 233 235.18C233 235.072 233.072 235 233.18 235C233.252 235.072 233.288 235.108 233.288 235.144Z" fill="#E5E5E5" fill-opacity="0.1"/>
<path d="M132.553 154C120.155 153.928 111.073 143.872 111 132.663C110.928 121.382 119.939 111.146 132.409 111.002C144.122 110.857 153.853 120.481 153.997 132.303C154.178 143.656 145.095 153.892 132.553 154ZM132.517 147.981C141.131 147.981 148.087 141.061 148.051 132.483C148.051 124.013 141.095 117.129 132.625 117.021C124.552 116.913 117.019 123.4 116.947 132.483C116.947 141.061 123.939 147.981 132.517 147.981Z" fill="#E5E5E5" fill-opacity="0.1"/>
<path d="M145 132.982C145 140.166 139.186 145.964 132.018 146C124.814 146 119 140.202 119 133.018C119 125.835 124.778 120.037 131.982 120C139.149 119.964 145 125.798 145 132.982ZM132.823 124.996C132.823 124.668 132.823 124.303 132.823 123.975C132.713 122.115 132.311 121.787 130.446 122.006C130.153 122.042 129.897 122.115 129.641 122.152C124.814 123.1 120.975 127.621 120.865 132.471C120.865 133.091 120.975 133.383 121.633 133.565C127.264 135.133 132.896 130.867 132.823 124.996ZM142.221 137.321C140.502 136.774 139.039 137.139 137.759 138.196C136.37 139.363 136.004 140.895 136.224 142.645C136.297 143.119 136.48 143.119 136.845 142.937C139.295 141.734 141.051 139.874 142.221 137.321ZM132.859 132.727C132.859 132.435 132.53 132.107 132.018 132.107C131.543 132.107 131.177 132.362 131.141 132.945C131.141 133.529 131.47 133.821 131.945 133.857C132.457 133.857 132.823 133.565 132.859 132.727Z" fill="#E5E5E5" fill-opacity="0.1"/>
</svg>
