<svg width="40" height="40" viewBox="0 0 40 40" fill="none" xmlns="http://www.w3.org/2000/svg">
<path d="M11.916 15.5928C11.916 15.6694 11.9178 15.8046 11.9443 15.9482C11.9728 16.1024 12.0422 16.3335 12.2305 16.5459C12.511 16.8621 12.8766 16.9414 13.1143 16.9609L13.3008 16.9668H13.3076C15.958 16.9502 18.5971 16.959 21.2559 16.959C21.7033 16.959 22.1883 16.9512 22.6963 16.8838L22.6953 16.8828C25.597 16.5106 27.4383 14.9413 28.2393 12.9648C28.9694 11.1629 28.8013 9.0984 27.9072 7.48926L27.7188 7.17285L27.7168 7.1709L27.4648 6.80664C26.2491 5.16896 24.4773 4.37025 22.4678 4.20703L22.0332 4.18164H22.0312C19.0926 4.08138 16.0901 4.16415 13.2178 4.13965L13.209 5.13184L13.2178 4.13867H13.209C13.0222 4.1387 12.5176 4.15954 12.1758 4.60254C12.0191 4.80576 11.9663 5.01499 11.9453 5.14453C11.9255 5.26716 11.9258 5.38018 11.9258 5.43066V10.5449C11.9258 12.2345 11.9352 13.906 11.917 15.5811L12.916 15.5928L11.916 15.5811V15.5928ZM7.80176 15.582C7.79261 10.7272 7.79199 5.87222 7.79199 1.00781C7.79199 1.0065 7.79199 1.0052 7.79199 1.00391C7.81882 1.00281 7.84871 1 7.88184 1H21.8506C24.1427 1 26.2594 1.39551 28.1553 2.44629V2.44727C29.9661 3.45898 31.298 4.77556 32.082 6.4541L32.2314 6.79395C33.2325 9.23079 33.2563 11.6871 32.2988 14.127C31.4621 16.2515 29.8819 17.8277 27.6445 18.9141L27.1885 19.125C25.7298 19.7655 24.1496 20.0301 22.4717 20.0918L21.7461 20.1064C20.3422 20.1106 18.9385 20.1124 17.5352 20.1113L13.3252 20.0977H13.3193C13.1491 20.0977 12.6566 20.0976 12.2803 20.4658C11.9814 20.7583 11.9189 21.1195 11.9082 21.3428V21.5225C11.9345 22.1616 11.916 22.7684 11.916 23.4717C11.916 23.5666 11.9151 23.7277 11.9316 23.8682C11.948 24.0071 12.002 24.3461 12.2949 24.6221C12.5754 24.8864 12.904 24.9294 13.0283 24.9424C13.1648 24.9567 13.3236 24.9551 13.4287 24.9551H26.126C26.1452 24.9551 26.163 24.9566 26.1797 24.957C26.1943 25.8315 26.1944 26.7064 26.1797 27.5879L26.1689 27.5889C26.1035 27.5938 26.1319 27.5859 25.915 27.5859L13.2939 27.5781H13.292C13.1419 27.5781 12.6815 27.5753 12.3135 27.9102C12.0129 28.1836 11.9343 28.5272 11.9141 28.751L11.9072 28.9277V28.9414C11.9243 30.1997 11.8992 31.6881 11.9258 32.9961V33H7.79688L7.79199 32.8955V32.8896C7.80108 32.2323 7.80186 31.5554 7.80078 30.8828L7.80176 28.9014V28.8945C7.80176 28.7362 7.79571 28.232 7.36719 27.875C7.16706 27.7084 6.95355 27.6441 6.80957 27.6162C6.74013 27.6028 6.673 27.595 6.6123 27.5908L6.4541 27.5859H6.44922C4.64855 27.5943 2.85647 27.5947 1.05273 27.5947C1.03393 27.5947 1.0164 27.5922 1 27.5918V24.9668C1.03414 24.9651 1.07325 24.9629 1.11719 24.9629C2.00801 24.9629 2.89492 24.9609 3.78027 24.9609L6.43555 24.9717H6.44434C6.58682 24.9717 7.05725 24.9756 7.4248 24.627C7.72389 24.343 7.78921 23.9912 7.80078 23.7715V23.6025C7.78325 22.8854 7.78327 22.1683 7.80078 21.4512C7.80585 21.3128 7.82665 20.7967 7.40332 20.4199C7.20267 20.2414 6.98369 20.1704 6.83496 20.1396C6.76304 20.1248 6.69326 20.117 6.62988 20.1123L6.46289 20.1064H6.45801C4.67577 20.1148 2.88399 20.1143 1.09863 20.1143C1.06176 20.1143 1.02901 20.1108 1 20.1094V16.9912C1 16.9821 1.00085 16.9733 1.00098 16.9648C1.04129 16.9622 1.08892 16.959 1.14453 16.959C2.02183 16.959 2.89745 16.957 3.77148 16.957L6.38965 16.9668H6.39844C6.57973 16.9668 7.08286 16.9631 7.45605 16.5693C7.81904 16.1862 7.80176 15.6922 7.80176 15.584V15.582Z" stroke="#02E602" stroke-width="2"/>
</svg>
