<svg width="46" height="46" viewBox="0 0 46 46" fill="none" xmlns="http://www.w3.org/2000/svg">
<path d="M42.5 36H39.5V33H41V27H35V28.5H32V25.5C32 25.1022 32.158 24.7206 32.4393 24.4393C32.7206 24.158 33.1022 24 33.5 24H42.5C42.8978 24 43.2794 24.158 43.5607 24.4393C43.842 24.7206 44 25.1022 44 25.5V34.5C44 34.8978 43.842 35.2794 43.5607 35.5607C43.2794 35.842 42.8978 36 42.5 36Z" fill="#02E602"/>
<path d="M34.5333 43H25.7333C25.3443 43 24.9713 42.8473 24.6962 42.5754C24.4212 42.3036 24.2667 41.9349 24.2667 41.5504V32.8531C24.2667 32.4686 24.4212 32.0999 24.6962 31.8281C24.9713 31.5562 25.3443 31.4035 25.7333 31.4035H34.5333C34.9223 31.4035 35.2954 31.5562 35.5704 31.8281C35.8455 32.0999 36 32.4686 36 32.8531V41.5504C36 41.9349 35.8455 42.3036 35.5704 42.5754C35.2954 42.8473 34.9223 43 34.5333 43ZM27.2 40.1009H33.0667V34.3026H27.2V40.1009ZM21.3333 28.2986C20.2736 28.0256 19.3125 27.4644 18.5592 26.6787C17.806 25.8931 17.2907 24.9144 17.0719 23.8538C16.8531 22.7933 16.9396 21.6933 17.3216 20.6789C17.7035 19.6645 18.3656 18.7763 19.2327 18.115C20.0997 17.4538 21.137 17.0461 22.2267 16.9383C23.3164 16.8304 24.4148 17.0267 25.3973 17.5049C26.3798 17.983 27.207 18.7238 27.7849 19.6432C28.3628 20.5627 28.6683 21.6238 28.6667 22.7062H31.6C31.6017 21.0476 31.1235 19.4231 30.2219 18.0243C29.3202 16.6254 28.0326 15.5106 26.511 14.8112C24.9893 14.1117 23.2971 13.8569 21.6337 14.0767C19.9704 14.2965 18.4053 14.9818 17.123 16.0518C15.8408 17.1218 14.8948 18.5318 14.3966 20.1156C13.8985 21.6994 13.869 23.391 14.3115 24.9909C14.754 26.5908 15.6502 28.0322 16.8943 29.1453C18.1384 30.2584 19.6786 30.9966 21.3333 31.2731V28.2986Z" fill="#02E602"/>
<path d="M42.0208 19.5L38.7017 22.4L36.6614 20.3714L40.1242 17.3429L36.7332 11.5143L31.7905 13.1714C30.6327 12.2132 29.3213 11.4551 27.9111 10.9286L26.8909 5.85714H20.1091L19.0889 10.9286C17.6673 11.4404 16.3488 12.1998 15.1951 13.1714L10.2668 11.5143L6.87584 17.3429L10.784 20.7571C10.5182 22.2359 10.5182 23.7498 10.784 25.2286L6.87584 28.6571L10.2668 34.4857L15.2095 32.8286C16.3673 33.7868 17.6787 34.5449 19.0889 35.0714L20.1091 40.1429H22.0632V43H20.1091C19.4446 42.9995 18.8008 42.77 18.2874 42.3507C17.7739 41.9313 17.4225 41.348 17.2929 40.7L16.5601 37.1C15.9096 36.7846 15.2808 36.4266 14.6778 36.0286L11.1863 37.2C10.8894 37.2961 10.579 37.3443 10.2668 37.3429C9.76204 37.3463 9.26554 37.2157 8.82856 36.9646C8.39157 36.7134 8.02995 36.3509 7.78105 35.9143L4.39012 30.0857C4.05475 29.5129 3.93012 28.8419 4.03759 28.1878C4.14506 27.5336 4.47794 26.937 4.97922 26.5L7.73794 24.1C7.70921 23.7286 7.69484 23.3714 7.69484 23C7.69484 22.6286 7.72357 22.2714 7.75231 21.9143L4.97922 19.5C4.47794 19.063 4.14506 18.4664 4.03759 17.8122C3.93012 17.1581 4.05475 16.4871 4.39012 15.9143L7.78105 10.0857C8.02995 9.64914 8.39157 9.28656 8.82856 9.03542C9.26554 8.78428 9.76204 8.65369 10.2668 8.65714C10.579 8.65571 10.8894 8.70394 11.1863 8.8L14.6635 9.97143C15.2713 9.57329 15.9049 9.21537 16.5601 8.9L17.2929 5.3C17.4225 4.65202 17.7739 4.0687 18.2874 3.64935C18.8008 3.23 19.4446 3.00053 20.1091 3H26.8909C27.5554 3.00053 28.1992 3.23 28.7126 3.64935C29.2261 4.0687 29.5775 4.65202 29.7071 5.3L30.4399 8.9C31.0904 9.21545 31.7192 9.57338 32.3222 9.97143L35.8137 8.8C36.1106 8.70394 36.421 8.65571 36.7332 8.65714C37.238 8.65369 37.7345 8.78428 38.1714 9.03542C38.6084 9.28656 38.9701 9.64914 39.219 10.0857L42.6099 15.9143C42.9453 16.4871 43.0699 17.1581 42.9624 17.8122C42.8549 18.4664 42.5221 19.063 42.0208 19.5Z" fill="#02E602"/>
</svg>
