<svg width="680" height="117" viewBox="0 0 680 117" fill="none" xmlns="http://www.w3.org/2000/svg">
<g clip-path="url(#clip0_58_33)">
<path d="M628.783 15C627.984 15 627.333 15.8973 627.333 17C627.333 18.1027 627.984 19 628.783 19C629.582 19 630.232 18.1027 630.232 17C630.232 15.8973 629.582 15 628.783 15ZM628.783 17.6667C628.516 17.6667 628.3 17.3673 628.3 17C628.3 16.6327 628.516 16.3333 628.783 16.3333C629.049 16.3333 629.266 16.6327 629.266 17C629.266 17.3673 629.049 17.6667 628.783 17.6667Z" fill="#02E602"/>
<path d="M670.812 19C671.611 19 672.261 18.1027 672.261 17C672.261 15.8973 671.611 15 670.812 15C670.013 15 669.362 15.8973 669.362 17C669.362 18.1027 670.013 19 670.812 19ZM670.812 16.3333C671.078 16.3333 671.295 16.6327 671.295 17C671.295 17.3673 671.078 17.6667 670.812 17.6667C670.545 17.6667 670.328 17.3673 670.328 17C670.328 16.6327 670.545 16.3333 670.812 16.3333Z" fill="#02E602"/>
<path d="M630.232 67C630.232 65.8973 629.582 65 628.783 65C627.984 65 627.333 65.8973 627.333 67C627.333 68.1027 627.984 69 628.783 69C629.582 69 630.232 68.1027 630.232 67ZM628.3 67C628.3 66.6327 628.516 66.3333 628.783 66.3333C629.049 66.3333 629.266 66.6327 629.266 67C629.266 67.3673 629.049 67.6667 628.783 67.6667C628.516 67.6667 628.3 67.3673 628.3 67Z" fill="#02E602"/>
<path d="M670.812 65C670.013 65 669.362 65.8973 669.362 67C669.362 68.1027 670.013 69 670.812 69C671.611 69 672.261 68.1027 672.261 67C672.261 65.8973 671.611 65 670.812 65ZM670.812 67.6667C670.545 67.6667 670.328 67.3673 670.328 67C670.328 66.6327 670.545 66.3333 670.812 66.3333C671.078 66.3333 671.295 66.6327 671.295 67C671.295 67.3673 671.078 67.6667 670.812 67.6667Z" fill="#02E602"/>
<path d="M659.471 33.7358L669.872 20.8709C670.229 21.0544 670.614 21.1598 671.017 21.1598C671.026 21.1598 671.035 21.1578 671.044 21.1578L676.812 31.3847C677.189 31.9534 677.688 32.2547 678.16 32.2547C678.449 32.2547 678.729 32.1409 678.964 31.9053C679.233 31.6365 680.028 30.5615 678.984 28.0191L677.098 23.464C676.587 22.0519 676.052 20.6626 675.606 20.0731L674.141 18.0512C674.251 17.5983 674.313 17.1155 674.313 16.6118C674.313 14.1046 672.834 12.0645 671.017 12.0645C670.853 12.0645 670.693 12.0866 670.536 12.1185L664.756 1.87083C664.147 0.953301 663.222 0.729449 662.604 1.3496C662.335 1.61835 661.54 2.69335 662.584 5.23576L664.468 9.78697C664.955 11.1327 665.514 12.5897 665.962 13.1818L667.788 15.7015C667.744 15.9962 667.721 16.3014 667.721 16.6131C667.721 16.6704 667.726 16.7257 667.727 16.7817L659.428 23.7204C658.712 20.2429 656.636 17.5469 654.042 16.8175V16.6209C654.042 16.578 654.039 16.5357 654.033 16.4934C653.821 15.0358 652.855 14.018 651.684 14.018H647.91C646.739 14.018 645.773 15.0358 645.561 16.4934C645.555 16.5357 645.552 16.578 645.552 16.6209V16.8175C642.961 17.5463 640.887 20.2377 640.168 23.723L632.31 17.1519C632.324 16.9801 632.333 16.8064 632.333 16.6287C632.333 16.1316 632.273 15.654 632.165 15.2056L633.626 13.1909C634.08 12.5897 634.639 11.1327 635.124 9.79022L637.012 5.23315C638.054 2.69335 637.259 1.61835 636.991 1.3496C636.372 0.728148 635.446 0.953301 634.814 1.91053L629.078 12.0847C629.065 12.0847 629.051 12.0821 629.037 12.0821C627.22 12.0821 625.742 14.1221 625.742 16.6294C625.742 16.9483 625.766 17.2587 625.811 17.5593L623.995 20.0653C623.543 20.6639 623.007 22.0539 622.497 23.466L620.609 28.023C619.567 30.5628 620.362 31.6378 620.63 31.9066C620.863 32.1402 621.14 32.2541 621.428 32.2541C621.904 32.2541 622.412 31.9424 622.807 31.3457L628.569 21.1253C628.722 21.1552 628.877 21.1761 629.037 21.1761C629.318 21.1761 629.59 21.122 629.851 21.0303L640.123 33.7358L640.625 49.6429L629.851 62.9686C629.59 62.8768 629.318 62.8228 629.037 62.8228C628.877 62.8228 628.722 62.8436 628.568 62.8742L622.783 52.6141C622.174 51.696 621.249 51.4734 620.63 52.0929C620.362 52.3617 619.567 53.4367 620.61 55.9791L622.495 60.5329C623.007 61.945 623.542 63.3349 623.988 63.9251L625.811 66.4409C625.766 66.7408 625.742 67.0519 625.742 67.3708C625.742 69.878 627.22 71.9181 629.037 71.9181C629.051 71.9181 629.064 71.9155 629.078 71.9155L634.838 82.1293C635.215 82.6981 635.714 83 636.186 83C636.476 83 636.755 82.8861 636.991 82.6506C637.259 82.3811 638.054 81.3068 637.011 78.7644L635.126 74.2132C634.639 72.8675 634.08 71.4105 633.633 70.8183L632.165 68.7939C632.273 68.3456 632.333 67.8679 632.333 67.3708C632.333 67.1937 632.324 67.02 632.31 66.8476L641.359 59.2809C642.142 61.3808 643.725 62.8228 645.552 62.8228H654.042C655.87 62.8228 657.456 61.3769 658.238 59.2828L667.274 66.8378C667.259 67.0128 667.249 67.1892 667.249 67.3695C667.249 67.8712 667.311 68.3527 667.42 68.8043L665.968 70.8073C665.514 71.4085 664.955 72.8655 664.47 74.208L662.582 78.765C661.54 81.3048 662.335 82.3799 662.603 82.6486C662.836 82.8822 663.113 82.9961 663.401 82.9961C663.878 82.9961 664.386 82.6844 664.78 82.0877L670.516 71.9142C670.526 71.9142 670.535 71.9161 670.545 71.9161C672.363 71.9161 673.841 69.8761 673.841 67.3688C673.841 66.8703 673.781 66.3914 673.673 65.9424L675.123 63.9421C675.575 63.3434 676.11 61.9534 676.621 60.5413L678.508 55.9843C679.551 53.4445 678.756 52.3695 678.488 52.1007C677.869 51.4793 676.943 51.7044 676.311 52.6616L670.581 62.8247C670.569 62.8247 670.557 62.8221 670.545 62.8221C670.267 62.8221 669.999 62.8749 669.741 62.9647L658.97 49.6436L659.471 33.7358ZM674.946 21.0036C675.343 21.5294 676.005 23.3579 676.254 24.0464C676.258 24.0575 676.273 24.1004 676.278 24.1108L678.164 28.664C678.653 29.8561 678.64 30.6227 678.41 30.8537C678.213 31.0502 677.805 30.9559 677.531 30.5472L672.096 20.9053C672.741 20.5956 673.294 20.0184 673.687 19.2681L674.946 21.0036ZM673.37 16.6131C673.37 18.4026 672.315 19.859 671.017 19.859C669.72 19.859 668.665 18.4033 668.665 16.6131C668.665 14.823 669.719 13.3673 671.017 13.3673C672.314 13.3673 673.37 14.823 673.37 16.6131ZM666.621 12.2519C666.224 11.7255 665.562 9.89499 665.312 9.20586C665.308 9.1948 665.294 9.15576 665.289 9.14535L663.404 4.59219C662.914 3.40005 662.928 2.63349 663.158 2.40248C663.352 2.20596 663.762 2.29901 664.036 2.70897L669.573 12.5311C668.977 12.9339 668.482 13.5749 668.154 14.3668L666.621 12.2519ZM667.918 18.1443C668.131 18.9649 668.51 19.6755 669 20.2013L659.528 31.9164L659.702 26.3819C659.702 25.9368 659.673 25.5021 659.631 25.0726L667.918 18.1443ZM647.91 15.3195H651.684C652.269 15.3195 652.917 15.7346 653.089 16.6535C652.936 16.6392 652.783 16.6209 652.627 16.6209H646.967C646.811 16.6209 646.658 16.6392 646.505 16.6535C646.677 15.7346 647.325 15.3195 647.91 15.3195ZM635.534 2.74867C635.832 2.29966 636.241 2.20661 636.436 2.40248C636.666 2.63284 636.68 3.40005 636.191 4.58958L634.305 9.1447C634.3 9.15511 634.286 9.19415 634.281 9.20521C634.032 9.89434 633.37 11.7255 632.965 12.261L631.715 13.9868C631.323 13.2345 630.771 12.6547 630.127 12.3424L635.534 2.74867ZM622.087 30.5069C621.788 30.9559 621.379 31.0489 621.184 30.8531C620.954 30.6227 620.94 29.8555 621.429 28.666L623.316 24.1108C623.32 24.1004 623.336 24.0575 623.34 24.0464C623.589 23.3579 624.251 21.5294 624.655 20.9945L626.181 18.8887C626.511 19.6787 627.007 20.3177 627.604 20.7173L622.087 30.5069ZM626.684 16.6287C626.684 14.8392 627.74 13.3829 629.037 13.3829C630.334 13.3829 631.39 14.8386 631.39 16.6287C631.39 18.4189 630.334 19.8746 629.037 19.8746C627.74 19.8746 626.684 18.4189 626.684 16.6287ZM630.804 20.4609C631.351 19.9794 631.788 19.2844 632.052 18.4586L639.965 25.0752C639.922 25.5132 639.892 25.9563 639.892 26.4105L640.066 31.9164L630.804 20.4609ZM624.648 62.9952C624.251 62.4688 623.589 60.6396 623.339 59.9511C623.336 59.9401 623.32 59.8984 623.316 59.888L621.43 55.3348C620.941 54.1427 620.954 53.3761 621.184 53.1451C621.378 52.9499 621.788 53.0423 622.062 53.4523L627.603 63.2816C627.007 63.6818 626.51 64.3201 626.181 65.1101L624.648 62.9952ZM626.684 67.3701C626.684 65.5806 627.74 64.1243 629.037 64.1243C630.334 64.1243 631.39 65.5799 631.39 67.3701C631.39 69.1603 630.334 70.6159 629.037 70.6159C627.74 70.6159 626.684 69.1596 626.684 67.3701ZM632.972 71.7469C633.37 72.2734 634.032 74.1039 634.281 74.793C634.286 74.804 634.3 74.8431 634.305 74.8535L636.19 79.4067C636.679 80.5988 636.666 81.3654 636.436 81.5964C636.241 81.7909 635.832 81.6992 635.558 81.2899L630.127 71.6565C630.772 71.3435 631.324 70.7643 631.715 70.0121L632.972 71.7469ZM632.052 65.5402C631.788 64.7145 631.351 64.0195 630.804 63.5379L640.677 51.3257L640.835 56.3155C640.835 56.9168 640.899 57.4972 641.01 58.0503L632.052 65.5402ZM646.127 61.5213L646.481 59.0765C646.634 58.2306 647.235 57.617 647.91 57.617H651.684C652.359 57.617 652.96 58.2306 653.108 59.046L653.467 61.5213H646.127ZM654.425 61.4947L654.027 58.7603C653.771 57.3437 652.785 56.3155 651.684 56.3155H647.91C646.809 56.3155 645.823 57.3436 645.561 58.7909L645.169 61.4947C643.268 61.2292 641.778 59.0063 641.778 56.2875L641.057 33.3994C641.057 33.3987 641.057 33.3974 641.057 33.3968L640.835 26.3819C640.835 25.8535 640.875 25.3375 640.943 24.8358C640.943 24.8351 640.943 24.8351 640.943 24.8345C641.472 20.9073 643.969 17.9224 646.967 17.9224H652.627C655.625 17.9224 658.123 20.9086 658.652 24.8169C658.653 24.8293 658.654 24.8403 658.656 24.8527C658.72 25.3407 658.759 25.8411 658.759 26.3539L657.816 56.3155C657.816 59.0076 656.326 61.2292 654.425 61.4947ZM664.06 81.2502C663.762 81.6992 663.352 81.7916 663.158 81.5964C662.928 81.366 662.914 80.5988 663.403 79.4093L665.289 74.8541C665.294 74.8437 665.308 74.8047 665.312 74.7936C665.562 74.1045 666.224 72.2734 666.628 71.7378L667.873 70.0212C668.266 70.7728 668.819 71.3506 669.465 71.661L664.06 81.2502ZM670.545 70.6159C669.248 70.6159 668.193 69.1603 668.193 67.3701C668.193 65.5799 669.248 64.1243 670.545 64.1243C671.842 64.1243 672.898 65.5799 672.898 67.3701C672.898 69.1603 671.842 70.6159 670.545 70.6159ZM677.03 53.5011C677.329 53.0514 677.738 52.959 677.933 53.1549C678.163 53.3853 678.177 54.1525 677.688 55.342L675.801 59.8971C675.797 59.9075 675.781 59.9505 675.777 59.9615C675.528 60.65 674.866 62.4786 674.462 63.0135L673.221 64.7255C672.829 63.9726 672.276 63.3935 671.631 63.0811L677.03 53.5011ZM668.785 63.5321C668.237 64.0123 667.798 64.7073 667.533 65.5331L658.586 58.0523C658.695 57.5063 658.758 56.9356 658.758 56.3441L658.916 51.3263L668.785 63.5321Z" fill="#02E602"/>
<path d="M653.99 22H645.605C644.32 22 643.275 23.4953 643.275 25.3333V30.6667C643.275 32.5047 644.32 34 645.605 34H653.99C655.274 34 656.319 32.5047 656.319 30.6667V25.3333C656.319 23.4953 655.274 22 653.99 22ZM655.387 30.6667C655.387 31.7693 654.76 32.6667 653.99 32.6667H645.605C644.834 32.6667 644.207 31.7693 644.207 30.6667V25.3333C644.207 24.2307 644.834 23.3333 645.605 23.3333H653.99C654.76 23.3333 655.387 24.2307 655.387 25.3333V30.6667Z" fill="#02E602"/>
</g>
<g clip-path="url(#clip1_58_33)">
<path d="M-6 42.4742C26.8708 33.6226 60.7839 29.7617 94.4565 30.8917C120.112 31.7392 162.844 30.4209 183.368 51.8909C194.031 63.0968 199.884 85.4143 184.811 95.5844C162.844 110.369 146.248 73.2668 169.498 58.4826C176.313 54.1509 184.25 52.9268 191.947 52.0793C229.147 47.9359 265.224 53.0209 302.344 55.8459C358.626 60.1776 414.506 61.0251 470.467 51.7026C511.756 44.7342 552.243 40.7792 588 13" stroke="#02E602" stroke-width="2" stroke-miterlimit="10" stroke-dasharray="12 12"/>
</g>
<defs>
<clipPath id="clip0_58_33">
<rect width="60.1449" height="83" fill="white" transform="translate(619.362)"/>
</clipPath>
<clipPath id="clip1_58_33">
<rect width="603.623" height="104" fill="white" transform="translate(-6 13)"/>
</clipPath>
</defs>
</svg>
